<svg width="3405" height="2237" xmlns="http://www.w3.org/2000/svg" xmlns:xlink="http://www.w3.org/1999/xlink" xml:space="preserve" overflow="hidden"><defs><linearGradient x1="1469.65" y1="210.587" x2="3093.15" y2="210.587" gradientUnits="userSpaceOnUse" spreadMethod="reflect" id="fill0"><stop offset="0" stop-color="#F4CD97" stop-opacity="1"/><stop offset="0.3" stop-color="#FFE0A3" stop-opacity="1"/><stop offset="0.81" stop-color="#E0BB81" stop-opacity="1"/><stop offset="1" stop-color="#DBA15E" stop-opacity="1"/></linearGradient></defs><g transform="translate(-577 -123)"><g><path d="M1162.94 601.415 1162.94 1881.5 1156.06 1881.5 1156.06 601.415ZM1145.75 606 1159.5 578.5 1173.25 606Z" fill="#FFEDC2" fill-rule="nonzero" fill-opacity="1"/><path d="M1159.5 1878.06 3380.6 1878.06 3380.6 1884.94 1159.5 1884.94ZM3376 1867.75 3403.5 1881.5 3376 1895.25Z" fill="#FFEDC2" fill-rule="nonzero" fill-opacity="1"/><text fill="#FFFFFF" fill-opacity="1" font-family="Arial,Arial_MSFontService,sans-serif" font-style="normal" font-variant="normal" font-weight="400" font-stretch="normal" font-size="64" text-anchor="start" direction="ltr" writing-mode="lr-tb" unicode-bidi="normal" text-decoration="none" transform="matrix(-1.83697e-16 -1 1 -1.83697e-16 1058.59 1347)">SPEED</text><text fill="#FFFFFF" fill-opacity="1" font-family="Arial,Arial_MSFontService,sans-serif" font-style="normal" font-variant="normal" font-weight="400" font-stretch="normal" font-size="64" text-anchor="start" direction="ltr" writing-mode="lr-tb" unicode-bidi="normal" text-decoration="none" transform="matrix(1 0 0 1 2203.2 2020)">VDD</text><path d="M0 0 74.9999 166" stroke="#EDEDED" stroke-width="16.0417" stroke-linecap="butt" stroke-linejoin="round" stroke-miterlimit="10" stroke-opacity="1" fill="none" fill-rule="evenodd" transform="matrix(1 0 0 -1 1159 1881)"/><path d="M0 0 74.9999 144" stroke="#EDEDED" stroke-width="16.0417" stroke-linecap="butt" stroke-linejoin="round" stroke-miterlimit="10" stroke-opacity="1" fill="none" fill-rule="evenodd" transform="matrix(1 0 0 -1 1234 1715)"/><path d="M0 0 74.9999 126" stroke="#EDEDED" stroke-width="16.0417" stroke-linecap="butt" stroke-linejoin="round" stroke-miterlimit="10" stroke-opacity="1" fill="none" fill-rule="evenodd" transform="matrix(1 0 0 -1 1309 1571)"/><path d="M0 0 74.9999 109" stroke="#EDEDED" stroke-width="16.0417" stroke-linecap="butt" stroke-linejoin="round" stroke-miterlimit="10" stroke-opacity="1" fill="none" fill-rule="evenodd" transform="matrix(1 0 0 -1 1384 1445)"/><path d="M0 0 74.0003 95.0002" stroke="#EDEDED" stroke-width="16.0417" stroke-linecap="butt" stroke-linejoin="round" stroke-miterlimit="10" stroke-opacity="1" fill="none" fill-rule="evenodd" transform="matrix(1 0 0 -1 1459 1336)"/><path d="M0 0 74.9999 81.9998" stroke="#EDEDED" stroke-width="16.0417" stroke-linecap="butt" stroke-linejoin="round" stroke-miterlimit="10" stroke-opacity="1" fill="none" fill-rule="evenodd" transform="matrix(1 0 0 -1 1533 1241)"/><path d="M0 0 74.9999 72.0002" stroke="#EDEDED" stroke-width="16.0417" stroke-linecap="butt" stroke-linejoin="round" stroke-miterlimit="10" stroke-opacity="1" fill="none" fill-rule="evenodd" transform="matrix(1 0 0 -1 1608 1159)"/><path d="M0 0 74.9999 61.9999" stroke="#EDEDED" stroke-width="16.0417" stroke-linecap="butt" stroke-linejoin="round" stroke-miterlimit="10" stroke-opacity="1" fill="none" fill-rule="evenodd" transform="matrix(1 0 0 -1 1683 1087)"/><path d="M0 0 74.9999 54" stroke="#EDEDED" stroke-width="16.0417" stroke-linecap="butt" stroke-linejoin="round" stroke-miterlimit="10" stroke-opacity="1" fill="none" fill-rule="evenodd" transform="matrix(1 0 0 -1 1758 1025)"/><path d="M0 0 74.0003 47.0001" stroke="#EDEDED" stroke-width="16.0417" stroke-linecap="butt" stroke-linejoin="round" stroke-miterlimit="10" stroke-opacity="1" fill="none" fill-rule="evenodd" transform="matrix(1 0 0 -1 1833 971)"/><path d="M0 0 74.9999 40.9999" stroke="#EDEDED" stroke-width="16.0417" stroke-linecap="butt" stroke-linejoin="round" stroke-miterlimit="10" stroke-opacity="1" fill="none" fill-rule="evenodd" transform="matrix(1 0 0 -1 1907 924)"/><path d="M0 0 74.9999 36.0001" stroke="#EDEDED" stroke-width="16.0417" stroke-linecap="butt" stroke-linejoin="round" stroke-miterlimit="10" stroke-opacity="1" fill="none" fill-rule="evenodd" transform="matrix(1 0 0 -1 1982 883)"/><path d="M0 0 74.9999 30.9999" stroke="#EDEDED" stroke-width="16.0417" stroke-linecap="butt" stroke-linejoin="round" stroke-miterlimit="10" stroke-opacity="1" fill="none" fill-rule="evenodd" transform="matrix(1 0 0 -1 2057 847)"/><path d="M0 0 74.9999 27.0002" stroke="#EDEDED" stroke-width="16.0417" stroke-linecap="butt" stroke-linejoin="round" stroke-miterlimit="10" stroke-opacity="1" fill="none" fill-rule="evenodd" transform="matrix(1 0 0 -1 2132 816)"/><path d="M0 0 74.0003 23" stroke="#EDEDED" stroke-width="16.0417" stroke-linecap="butt" stroke-linejoin="round" stroke-miterlimit="10" stroke-opacity="1" fill="none" fill-rule="evenodd" transform="matrix(1 0 0 -1 2207 789)"/><path d="M0 0 74.9999 19.9999" stroke="#EDEDED" stroke-width="16.0417" stroke-linecap="butt" stroke-linejoin="round" stroke-miterlimit="10" stroke-opacity="1" fill="none" fill-rule="evenodd" transform="matrix(1 0 0 -1 2281 766)"/><path d="M0 0 74.9999 17.9999" stroke="#EDEDED" stroke-width="16.0417" stroke-linecap="butt" stroke-linejoin="round" stroke-miterlimit="10" stroke-opacity="1" fill="none" fill-rule="evenodd" transform="matrix(1 0 0 -1 2356 746)"/><path d="M0 0 74.9999 15.0001" stroke="#EDEDED" stroke-width="16.0417" stroke-linecap="butt" stroke-linejoin="round" stroke-miterlimit="10" stroke-opacity="1" fill="none" fill-rule="evenodd" transform="matrix(1 0 0 -1 2431 728)"/><path d="M0 0 74.9999 14.0001" stroke="#EDEDED" stroke-width="16.0417" stroke-linecap="butt" stroke-linejoin="round" stroke-miterlimit="10" stroke-opacity="1" fill="none" fill-rule="evenodd" transform="matrix(1 0 0 -1 2506 713)"/><path d="M0 0 74.0003 11" stroke="#EDEDED" stroke-width="16.0417" stroke-linecap="butt" stroke-linejoin="round" stroke-miterlimit="10" stroke-opacity="1" fill="none" fill-rule="evenodd" transform="matrix(1 0 0 -1 2581 699)"/><path d="M0 0 74.9999 9.99997" stroke="#EDEDED" stroke-width="16.0417" stroke-linecap="butt" stroke-linejoin="round" stroke-miterlimit="10" stroke-opacity="1" fill="none" fill-rule="evenodd" transform="matrix(1 0 0 -1 2655 688)"/><path d="M0 0 74.9999 8.99993" stroke="#EDEDED" stroke-width="16.0417" stroke-linecap="butt" stroke-linejoin="round" stroke-miterlimit="10" stroke-opacity="1" fill="none" fill-rule="evenodd" transform="matrix(1 0 0 -1 2730 678)"/><path d="M0 0 74.9999 7.9999" stroke="#EDEDED" stroke-width="16.0417" stroke-linecap="butt" stroke-linejoin="round" stroke-miterlimit="10" stroke-opacity="1" fill="none" fill-rule="evenodd" transform="matrix(1 0 0 -1 2805 669)"/><path d="M0 0 74.9999 6.0002" stroke="#EDEDED" stroke-width="16.0417" stroke-linecap="butt" stroke-linejoin="round" stroke-miterlimit="10" stroke-opacity="1" fill="none" fill-rule="evenodd" transform="matrix(1 0 0 -1 2880 661)"/><path d="M0 0 74.0003 5.99984" stroke="#EDEDED" stroke-width="16.0417" stroke-linecap="butt" stroke-linejoin="round" stroke-miterlimit="10" stroke-opacity="1" fill="none" fill-rule="evenodd" transform="matrix(1 0 0 -1 2955 655)"/><path d="M0 0 74.9999 5.00016" stroke="#EDEDED" stroke-width="16.0417" stroke-linecap="butt" stroke-linejoin="round" stroke-miterlimit="10" stroke-opacity="1" fill="none" fill-rule="evenodd" transform="matrix(1 0 0 -1 3029 649)"/><path d="M0 0 74.9999 4.9998" stroke="#EDEDED" stroke-width="16.0417" stroke-linecap="butt" stroke-linejoin="round" stroke-miterlimit="10" stroke-opacity="1" fill="none" fill-rule="evenodd" transform="matrix(1 0 0 -1 3104 644)"/><path d="M0 0 74.9999 3.0001" stroke="#EDEDED" stroke-width="16.0417" stroke-linecap="butt" stroke-linejoin="round" stroke-miterlimit="10" stroke-opacity="1" fill="none" fill-rule="evenodd" transform="matrix(1 0 0 -1 3179 639)"/><path d="M0 0 74.9999 3.99977" stroke="#EDEDED" stroke-width="16.0417" stroke-linecap="butt" stroke-linejoin="round" stroke-miterlimit="10" stroke-opacity="1" fill="none" fill-rule="evenodd" transform="matrix(1 0 0 -1 3254 636)"/><path d="M0 0 74.0003 2.00007" stroke="#EDEDED" stroke-width="16.0417" stroke-linecap="butt" stroke-linejoin="round" stroke-miterlimit="10" stroke-opacity="1" fill="none" fill-rule="evenodd" transform="matrix(1 0 0 -1 3329 632)"/><path d="M0 0 74.9999 9.99997" stroke="#E0473C" stroke-width="13.75" stroke-linecap="butt" stroke-linejoin="round" stroke-miterlimit="10" stroke-dasharray="55 41.25" stroke-opacity="1" fill="none" fill-rule="evenodd" transform="matrix(1 0 0 -1 1159 1881)"/><path d="M0 0 74.9999 8.99993" stroke="#E0473C" stroke-width="13.75" stroke-linecap="butt" stroke-linejoin="round" stroke-miterlimit="10" stroke-dasharray="55 41.25" stroke-opacity="1" fill="none" fill-rule="evenodd" transform="matrix(1 0 0 -1 1234 1871)"/><path d="M0 0 74.9999 9.99997" stroke="#E0473C" stroke-width="13.75" stroke-linecap="butt" stroke-linejoin="round" stroke-miterlimit="10" stroke-dasharray="55 41.25" stroke-opacity="1" fill="none" fill-rule="evenodd" transform="matrix(1 0 0 -1 1309 1862)"/><path d="M0 0 74.9999 9.0003" stroke="#E0473C" stroke-width="13.75" stroke-linecap="butt" stroke-linejoin="round" stroke-miterlimit="10" stroke-dasharray="55 41.25" stroke-opacity="1" fill="none" fill-rule="evenodd" transform="matrix(1 0 0 -1 1384 1852)"/><path d="M0 0 74.0003 9.99997" stroke="#E0473C" stroke-width="13.75" stroke-linecap="butt" stroke-linejoin="round" stroke-miterlimit="10" stroke-dasharray="55 41.25" stroke-opacity="1" fill="none" fill-rule="evenodd" transform="matrix(1 0 0 -1 1459 1843)"/><path d="M0 0 74.9999 9.99997" stroke="#E0473C" stroke-width="13.75" stroke-linecap="butt" stroke-linejoin="round" stroke-miterlimit="10" stroke-dasharray="55 41.25" stroke-opacity="1" fill="none" fill-rule="evenodd" transform="matrix(1 0 0 -1 1533 1833)"/><path d="M0 0 74.9999 17.9999" stroke="#E0473C" stroke-width="13.75" stroke-linecap="butt" stroke-linejoin="round" stroke-miterlimit="10" stroke-dasharray="55 41.25" stroke-opacity="1" fill="none" fill-rule="evenodd" transform="matrix(1 0 0 -1 1608 1823)"/><path d="M0 0 74.9999 169" stroke="#E0473C" stroke-width="13.75" stroke-linecap="butt" stroke-linejoin="round" stroke-miterlimit="10" stroke-dasharray="55 41.25" stroke-opacity="1" fill="none" fill-rule="evenodd" transform="matrix(1 0 0 -1 1683 1805)"/><path d="M0 0 74.9999 146" stroke="#E0473C" stroke-width="13.75" stroke-linecap="butt" stroke-linejoin="round" stroke-miterlimit="10" stroke-dasharray="55 41.25" stroke-opacity="1" fill="none" fill-rule="evenodd" transform="matrix(1 0 0 -1 1758 1636)"/><path d="M0 0 74.0003 125" stroke="#E0473C" stroke-width="13.75" stroke-linecap="butt" stroke-linejoin="round" stroke-miterlimit="10" stroke-dasharray="55 41.25" stroke-opacity="1" fill="none" fill-rule="evenodd" transform="matrix(1 0 0 -1 1833 1490)"/><path d="M0 0 74.9999 107" stroke="#E0473C" stroke-width="13.75" stroke-linecap="butt" stroke-linejoin="round" stroke-miterlimit="10" stroke-dasharray="55 41.25" stroke-opacity="1" fill="none" fill-rule="evenodd" transform="matrix(1 0 0 -1 1907 1365)"/><path d="M0 0 74.9999 92.0001" stroke="#E0473C" stroke-width="13.75" stroke-linecap="butt" stroke-linejoin="round" stroke-miterlimit="10" stroke-dasharray="55 41.25" stroke-opacity="1" fill="none" fill-rule="evenodd" transform="matrix(1 0 0 -1 1982 1258)"/><path d="M0 0 74.9999 79.0001" stroke="#E0473C" stroke-width="13.75" stroke-linecap="butt" stroke-linejoin="round" stroke-miterlimit="10" stroke-dasharray="55 41.25" stroke-opacity="1" fill="none" fill-rule="evenodd" transform="matrix(1 0 0 -1 2057 1166)"/><path d="M0 0 74.9999 68.0001" stroke="#E0473C" stroke-width="13.75" stroke-linecap="butt" stroke-linejoin="round" stroke-miterlimit="10" stroke-dasharray="55 41.25" stroke-opacity="1" fill="none" fill-rule="evenodd" transform="matrix(1 0 0 -1 2132 1087)"/><path d="M0 0 74.0003 57.9997" stroke="#E0473C" stroke-width="13.75" stroke-linecap="butt" stroke-linejoin="round" stroke-miterlimit="10" stroke-dasharray="55 41.25" stroke-opacity="1" fill="none" fill-rule="evenodd" transform="matrix(1 0 0 -1 2207 1019)"/><path d="M0 0 74.9999 50.0002" stroke="#E0473C" stroke-width="13.75" stroke-linecap="butt" stroke-linejoin="round" stroke-miterlimit="10" stroke-dasharray="55 41.25" stroke-opacity="1" fill="none" fill-rule="evenodd" transform="matrix(1 0 0 -1 2281 961)"/><path d="M0 0 74.9999 43" stroke="#E0473C" stroke-width="13.75" stroke-linecap="butt" stroke-linejoin="round" stroke-miterlimit="10" stroke-dasharray="55 41.25" stroke-opacity="1" fill="none" fill-rule="evenodd" transform="matrix(1 0 0 -1 2356 911)"/><path d="M0 0 74.9999 36.0001" stroke="#E0473C" stroke-width="13.75" stroke-linecap="butt" stroke-linejoin="round" stroke-miterlimit="10" stroke-dasharray="55 41.25" stroke-opacity="1" fill="none" fill-rule="evenodd" transform="matrix(1 0 0 -1 2431 868)"/><path d="M0 0 74.9999 32" stroke="#E0473C" stroke-width="13.75" stroke-linecap="butt" stroke-linejoin="round" stroke-miterlimit="10" stroke-dasharray="55 41.25" stroke-opacity="1" fill="none" fill-rule="evenodd" transform="matrix(1 0 0 -1 2506 832)"/><path d="M0 0 74.0003 26.9998" stroke="#E0473C" stroke-width="13.75" stroke-linecap="butt" stroke-linejoin="round" stroke-miterlimit="10" stroke-dasharray="55 41.25" stroke-opacity="1" fill="none" fill-rule="evenodd" transform="matrix(1 0 0 -1 2581 800)"/><path d="M0 0 74.9999 23" stroke="#E0473C" stroke-width="13.75" stroke-linecap="butt" stroke-linejoin="round" stroke-miterlimit="10" stroke-dasharray="55 41.25" stroke-opacity="1" fill="none" fill-rule="evenodd" transform="matrix(1 0 0 -1 2655 773)"/><path d="M0 0 74.9999 19.9999" stroke="#E0473C" stroke-width="13.75" stroke-linecap="butt" stroke-linejoin="round" stroke-miterlimit="10" stroke-dasharray="55 41.25" stroke-opacity="1" fill="none" fill-rule="evenodd" transform="matrix(1 0 0 -1 2730 750)"/><path d="M0 0 74.9999 17.0002" stroke="#E0473C" stroke-width="13.75" stroke-linecap="butt" stroke-linejoin="round" stroke-miterlimit="10" stroke-dasharray="55 41.25" stroke-opacity="1" fill="none" fill-rule="evenodd" transform="matrix(1 0 0 -1 2805 730)"/><path d="M0 0 74.9999 14.0001" stroke="#E0473C" stroke-width="13.75" stroke-linecap="butt" stroke-linejoin="round" stroke-miterlimit="10" stroke-dasharray="55 41.25" stroke-opacity="1" fill="none" fill-rule="evenodd" transform="matrix(1 0 0 -1 2880 713)"/><path d="M0 0 74.0003 12.9997" stroke="#E0473C" stroke-width="13.75" stroke-linecap="butt" stroke-linejoin="round" stroke-miterlimit="10" stroke-dasharray="55 41.25" stroke-opacity="1" fill="none" fill-rule="evenodd" transform="matrix(1 0 0 -1 2955 699)"/><path d="M0 0 74.9999 11" stroke="#E0473C" stroke-width="13.75" stroke-linecap="butt" stroke-linejoin="round" stroke-miterlimit="10" stroke-dasharray="55 41.25" stroke-opacity="1" fill="none" fill-rule="evenodd" transform="matrix(1 0 0 -1 3029 686)"/><path d="M0 0 74.9999 9.0003" stroke="#E0473C" stroke-width="13.75" stroke-linecap="butt" stroke-linejoin="round" stroke-miterlimit="10" stroke-dasharray="55 41.25" stroke-opacity="1" fill="none" fill-rule="evenodd" transform="matrix(1 0 0 -1 3104 675)"/><path d="M0 0 74.9999 7.9999" stroke="#E0473C" stroke-width="13.75" stroke-linecap="butt" stroke-linejoin="round" stroke-miterlimit="10" stroke-dasharray="55 41.25" stroke-opacity="1" fill="none" fill-rule="evenodd" transform="matrix(1 0 0 -1 3179 666)"/><path d="M0 0 74.9999 6.99987" stroke="#E0473C" stroke-width="13.75" stroke-linecap="butt" stroke-linejoin="round" stroke-miterlimit="10" stroke-dasharray="55 41.25" stroke-opacity="1" fill="none" fill-rule="evenodd" transform="matrix(1 0 0 -1 3254 658)"/><path d="M0 0 74.0003 5.00016" stroke="#E0473C" stroke-width="13.75" stroke-linecap="butt" stroke-linejoin="round" stroke-miterlimit="10" stroke-dasharray="55 41.25" stroke-opacity="1" fill="none" fill-rule="evenodd" transform="matrix(1 0 0 -1 3329 651)"/><text fill="#FFFFFF" fill-opacity="1" font-family="Arial,Arial_MSFontService,sans-serif" font-style="normal" font-variant="normal" font-weight="400" font-stretch="normal" font-size="83" text-anchor="start" direction="ltr" writing-mode="lr-tb" unicode-bidi="normal" text-decoration="none" transform="matrix(1 0 0 1 1299.19 820)">Vmin</text><path d="M1441.02 862.102 1811.36 918.643 1810.33 925.439 1439.98 868.898ZM1808.39 907.757 1833.5 925.5 1804.24 934.942Z" fill="#EDEDED" fill-rule="nonzero" fill-opacity="1"/><text fill="#FFFFFF" fill-opacity="1" font-family="Riona Sans Light,Riona Sans Light_MSFontService,sans-serif" font-style="normal" font-variant="normal" font-weight="300" font-stretch="normal" font-size="73" text-anchor="start" direction="ltr" writing-mode="lr-tb" unicode-bidi="normal" text-decoration="none" transform="matrix(1 0 0 1 1440.2 2288)">Low Voltage designs for better </text><text fill="#FFFFFF" fill-opacity="1" font-family="Riona Sans Light,Riona Sans Light_MSFontService,sans-serif" font-style="normal" font-variant="normal" font-weight="300" font-stretch="normal" font-size="73" text-anchor="start" direction="ltr" writing-mode="lr-tb" unicode-bidi="normal" text-decoration="none" transform="matrix(1 0 0 1 2483.94 2288)">Performance/Watt</text><path d="M2213.21 167.542 2210.57 178.42 2197.34 215.023 2229.38 215.023 2216 178.567ZM2508.65 167.248 2508.65 240.013 2528.79 240.013C2550.4 240.013 2558.63 224.872 2558.63 203.557 2558.63 182.389 2550.69 167.248 2528.64 167.248ZM1971.11 165.925C1951.41 165.925 1941.85 179.596 1941.85 203.557 1941.85 227.959 1951.7 241.336 1970.96 241.336 1990.22 241.336 1999.92 227.812 1999.92 203.41 1999.92 179.302 1990.36 165.925 1971.11 165.925ZM1599.83 165.925C1580.14 165.925 1570.58 179.596 1570.58 203.557 1570.58 227.959 1580.43 241.336 1599.69 241.336 1618.94 241.336 1628.65 227.812 1628.65 203.41 1628.65 179.302 1619.09 165.925 1599.83 165.925ZM2908.93 151.666 2927.45 151.666 2969.5 213.847 2978.02 229.723 2976.85 211.054 2976.85 151.666 2994.34 151.666 2994.34 255.595 2975.52 255.595 2934.22 194.884 2925.25 178.861 2926.42 194.737 2926.42 255.595 2908.93 255.595ZM2772 151.666 2790.53 151.666 2790.53 255.595 2772 255.595ZM2593.25 151.666 2666.02 151.666 2666.02 167.395 2611.78 167.395 2611.78 195.325 2659.26 195.325 2659.26 210.466 2611.78 210.466 2611.78 239.866 2666.02 239.866 2666.02 255.595 2593.25 255.595ZM2490.13 151.666 2527.17 151.666C2564.66 151.666 2577.15 174.451 2577.15 203.704 2577.15 232.663 2564.22 255.595 2527.17 255.595L2490.13 255.595ZM2369.24 151.666 2442.01 151.666 2442.01 167.395 2387.77 167.395 2387.77 195.325 2435.25 195.325 2435.25 210.466 2387.77 210.466 2387.77 239.866 2442.01 239.866 2442.01 255.595 2369.24 255.595ZM2201.75 151.666 2225.41 151.666 2262.6 255.595 2243.79 255.595 2233.94 228.694 2192.78 228.694 2183.22 255.595 2164.55 255.595ZM2090.11 151.666 2173.31 151.666 2173.31 167.689 2140.97 167.689 2140.97 255.595 2122.45 255.595 2122.45 167.689 2090.11 167.689ZM2034.57 151.666 2053.09 151.666 2053.09 238.837 2101.75 238.837 2101.75 255.595 2034.57 255.595ZM1823.16 151.666 1842.57 151.666 1868.14 225.313 1871.52 238.543 1874.76 225.313 1899.9 151.666 1919.15 151.666 1882.84 255.595 1859.32 255.595ZM1653.01 151.666 1672.41 151.666 1689.02 216.787 1691.96 236.044 1695.78 216.493 1713.28 151.666 1729.59 151.666 1747.09 216.493 1751.05 236.044 1753.85 216.787 1770.46 151.666 1789.86 151.666 1763.11 255.595 1742.09 255.595 1724.59 191.944 1721.51 176.95 1718.42 191.797 1700.78 255.595 1679.76 255.595ZM1479.64 151.666 1498.16 151.666 1498.16 238.837 1546.82 238.837 1546.82 255.595 1479.64 255.595ZM3051.39 150.049C3067.41 150.049 3081.23 154.459 3083 155.194L3082.11 171.805C3076.38 168.865 3062.27 166.366 3052.57 166.366 3039.04 166.366 3028.61 170.188 3028.61 179.449 3028.61 198.853 3087.11 188.857 3087.11 226.636 3087.11 247.804 3071.24 257.212 3045.95 257.212 3026.99 257.212 3011.55 252.214 3011.55 252.214L3012.29 234.868C3014.94 236.632 3030.66 240.601 3045.51 240.601 3058.45 240.601 3068.59 236.779 3068.59 226.783 3068.59 205.762 3010.08 216.199 3010.08 180.037 3010.08 160.192 3025.96 150.049 3051.39 150.049ZM2857.87 150.049C2871.98 150.049 2885.95 152.695 2887.86 153.577L2886.83 170.188C2881.54 168.277 2868.9 166.66 2859.93 166.66 2839.79 166.66 2825.24 175.48 2825.24 203.851 2825.24 232.222 2839.79 240.895 2858.31 240.895 2862.87 240.895 2868.9 240.307 2872.42 239.425L2872.42 203.263 2890.5 203.263 2890.5 252.508C2883.89 254.566 2870.51 257.212 2856.99 257.212 2825.38 257.212 2806.57 239.572 2806.57 203.851 2806.57 170.923 2823.47 150.049 2857.87 150.049ZM2720.25 150.049C2736.27 150.049 2750.09 154.459 2751.85 155.194L2750.97 171.805C2745.24 168.865 2731.12 166.366 2721.42 166.366 2707.9 166.366 2697.46 170.188 2697.46 179.449 2697.46 198.853 2755.97 188.857 2755.97 226.636 2755.97 247.804 2740.09 257.212 2714.81 257.212 2695.84 257.212 2680.41 252.214 2680.41 252.214L2681.14 234.868C2683.79 236.632 2699.52 240.601 2714.37 240.601 2727.3 240.601 2737.45 236.779 2737.45 226.783 2737.45 205.762 2678.94 216.199 2678.94 180.037 2678.94 160.192 2694.81 150.049 2720.25 150.049ZM2318.18 150.049C2332.29 150.049 2346.26 152.695 2348.17 153.577L2347.14 170.188C2341.85 168.277 2329.21 166.66 2320.24 166.66 2300.1 166.66 2285.55 175.48 2285.55 203.851 2285.55 232.222 2300.1 240.895 2318.62 240.895 2323.18 240.895 2329.21 240.307 2332.74 239.425L2332.74 203.263 2350.82 203.263 2350.82 252.508C2344.2 254.566 2330.82 257.212 2317.3 257.212 2285.7 257.212 2266.88 239.572 2266.88 203.851 2266.88 170.923 2283.79 150.049 2318.18 150.049ZM1971.11 150.049C2002.12 150.049 2018.59 169.894 2018.59 203.263 2018.59 236.926 2002.12 257.212 1970.37 257.212 1939.21 257.212 1923.04 237.367 1923.04 204.145 1923.04 169.894 1939.8 150.049 1971.11 150.049ZM1599.83 150.049C1630.85 150.049 1647.32 169.894 1647.32 203.263 1647.32 236.926 1630.85 257.212 1599.1 257.212 1567.94 257.212 1551.77 237.367 1551.77 204.145 1551.77 169.894 1568.52 150.049 1599.83 150.049Z" fill="url(#fill0)" fill-rule="evenodd"/><text fill="#000000" fill-opacity="0" font-family="Arial,Arial_MSFontService,sans-serif" font-size="107.163" direction="ltr" writing-mode="lr-tb" x="1479.64" y="243.817">LOW VOLTAGE DESIGNS</text></g></g></svg>